<svg xmlns="http://www.w3.org/2000/svg" viewBox="0 0 2000 1227" width="2000" height="1227">
  <path d="M503,260 L501,261 L501,414 L494,416 L491,422 L480,422 L477,424 L477,740 L472,743 L460,742 L458,744 L458,1226 L623,1226 L623,745 L608,742 L608,568 L605,564 L577,563 L577,426 L575,424 L555,424 L552,422 L549,412 L550,334 L547,333 L546,274 L543,276 L543,414 L541,416 L538,414 L538,339 L537,414 L535,416 L514,416 L512,414 L512,339 L512,414 L510,416 L506,415 L506,263 Z" fill="#857881" />
  <path d="M1489,425 L1489,430 L1496,437 L1494,441 L1495,457 L1492,486 L1494,506 L1492,507 L1494,508 L1489,511 L1484,528 L1485,535 L1480,538 L1479,545 L1476,549 L1472,546 L1467,551 L1471,559 L1471,616 L1469,618 L1467,616 L1464,621 L1459,619 L1455,637 L1452,640 L1454,652 L1449,653 L1449,627 L1444,615 L1445,604 L1443,601 L1441,623 L1438,626 L1438,647 L1440,650 L1437,656 L1432,657 L1432,661 L1436,662 L1439,668 L1439,726 L1435,733 L1439,739 L1440,747 L1445,751 L1446,961 L1441,966 L1438,963 L1437,965 L1434,963 L1433,967 L1429,965 L1426,968 L1420,965 L1417,966 L1414,963 L1413,965 L1409,963 L1406,965 L1404,961 L1402,965 L1398,961 L1399,963 L1394,965 L1393,961 L1390,966 L1388,964 L1389,960 L1384,966 L1382,961 L1378,964 L1376,959 L1373,965 L1370,963 L1370,959 L1366,965 L1364,961 L1364,1066 L1369,1226 L1627,1226 L1630,1063 L1628,1063 L1629,1060 L1627,1059 L1629,1054 L1629,964 L1627,960 L1625,964 L1621,960 L1618,964 L1616,960 L1614,964 L1610,961 L1608,965 L1605,961 L1603,965 L1600,961 L1598,965 L1595,962 L1593,968 L1590,961 L1587,966 L1585,962 L1583,965 L1581,963 L1578,967 L1570,964 L1567,967 L1565,963 L1562,968 L1561,964 L1557,967 L1556,964 L1552,964 L1548,959 L1548,756 L1553,746 L1552,739 L1558,733 L1554,727 L1554,665 L1562,660 L1554,654 L1556,629 L1552,623 L1550,606 L1549,617 L1545,625 L1547,628 L1545,632 L1546,650 L1543,654 L1540,651 L1539,636 L1535,630 L1534,619 L1531,622 L1522,613 L1522,557 L1525,554 L1525,550 L1521,543 L1522,545 L1519,549 L1515,547 L1514,540 L1508,532 L1504,512 L1502,509 L1499,510 L1501,484 L1498,468 L1498,434 L1502,430 L1496,433 L1490,429 Z" fill="#7e7415" />
  <path d="M108,281 L107,341 L101,350 L99,376 L85,427 L92,433 L88,436 L83,431 L79,447 L70,463 L68,476 L58,486 L58,559 L46,561 L53,565 L53,588 L48,589 L48,1226 L169,1226 L169,589 L163,587 L163,566 L171,560 L159,559 L160,485 L150,476 L147,461 L131,424 L130,412 L118,376 L119,359 L111,341 Z" fill="#050608" />
  <path d="M249,134 L244,368 L239,370 L235,367 L234,369 L239,381 L240,405 L258,557 L257,591 L252,628 L253,638 L251,639 L246,688 L257,800 L257,842 L244,940 L244,963 L259,1043 L259,1062 L247,1186 L247,1226 L357,1226 L357,1179 L377,1139 L371,1116 L366,1041 L344,832 L354,739 L358,719 L358,703 L334,451 L334,385 L328,387 L327,384 L259,384 L257,381 L254,237 L252,234 L252,175 L250,163 L251,137 Z" fill="#364001" />
  <path d="M881,556 L881,1226 L1022,1226 L1022,556 Z" fill="#2f73c6" />
  <path d="M1138,381 L1136,395 L1136,439 L1133,448 L1123,448 L1121,446 L1119,382 L1117,384 L1118,390 L1114,408 L1109,463 L1105,480 L1091,630 L1088,644 L1089,654 L1087,659 L1078,778 L1079,802 L1077,808 L1077,851 L1074,878 L1075,903 L1072,915 L1073,943 L1070,1023 L1072,1026 L1069,1031 L1068,1058 L1069,1101 L1067,1104 L1066,1132 L1067,1191 L1065,1226 L1190,1226 L1182,880 L1180,874 L1180,833 L1173,743 L1172,700 L1168,676 L1169,665 L1163,619 L1162,589 L1160,588 L1158,547 L1156,547 L1157,539 L1154,530 L1154,513 Z" fill="#7a34ae" />
  <path d="M1821,666 L1814,670 L1809,678 L1813,691 L1808,695 L1800,696 L1800,703 L1798,705 L1805,712 L1805,717 L1809,723 L1807,726 L1808,743 L1813,752 L1811,759 L1814,767 L1813,802 L1819,824 L1819,834 L1810,847 L1806,868 L1809,881 L1816,884 L1813,893 L1823,902 L1821,911 L1823,919 L1819,927 L1828,940 L1829,949 L1832,953 L1821,971 L1816,988 L1817,1000 L1829,1003 L1830,1014 L1824,1023 L1821,1034 L1821,1044 L1824,1049 L1823,1055 L1826,1064 L1825,1084 L1828,1100 L1823,1111 L1825,1122 L1820,1142 L1822,1182 L1819,1186 L1821,1199 L1816,1214 L1806,1226 L1941,1226 L1938,1176 L1943,1171 L1942,1138 L1943,1132 L1946,1129 L1946,1114 L1950,1110 L1948,1097 L1949,1079 L1944,1038 L1948,1033 L1956,1032 L1959,1028 L1965,997 L1976,992 L1988,976 L1990,968 L1987,963 L1993,954 L1991,952 L1993,948 L1967,931 L1950,947 L1947,941 L1942,938 L1941,940 L1933,926 L1929,906 L1911,887 L1905,869 L1908,863 L1905,837 L1909,830 L1927,830 L1910,829 L1907,827 L1907,822 L1915,817 L1922,816 L1905,819 L1899,814 L1907,804 L1896,811 L1887,809 L1883,802 L1884,795 L1882,808 L1871,812 L1857,801 L1865,811 L1865,809 L1867,810 L1868,814 L1861,819 L1836,818 L1836,801 L1829,774 L1829,738 L1823,726 L1824,713 L1836,707 L1834,696 L1823,692 L1823,686 L1827,682 L1829,675 L1827,671 L1828,666 Z" fill="#1b4d10" />
  <path d="M746,719 L730,723 L704,737 L683,760 L670,792 L669,826 L673,841 L683,862 L698,880 L718,895 L718,1226 L793,1226 L793,897 L817,880 L827,869 L827,865 L832,862 L832,858 L835,857 L840,847 L846,823 L846,799 L837,769 L818,743 L802,731 L788,724 L772,720 Z" fill="#72fd00" />
  <path d="M1722,281 L1721,315 L1717,318 L1718,386 L1713,390 L1712,396 L1713,479 L1708,495 L1709,529 L1705,535 L1706,608 L1703,611 L1697,611 L1695,614 L1695,810 L1687,813 L1686,811 L1683,814 L1683,963 L1681,968 L1677,967 L1675,969 L1676,1090 L1665,1095 L1667,1097 L1665,1208 L1661,1211 L1656,1211 L1652,1220 L1645,1221 L1645,1226 L1801,1226 L1800,1221 L1792,1219 L1790,1210 L1784,1211 L1780,1207 L1781,1131 L1779,1127 L1774,1127 L1770,1120 L1771,1015 L1762,1010 L1762,1004 L1760,1003 L1762,1001 L1762,870 L1759,865 L1751,864 L1751,688 L1744,685 L1740,679 L1742,678 L1742,584 L1737,577 L1738,511 L1732,506 L1734,501 L1732,490 L1734,483 L1734,446 L1732,444 L1732,437 L1729,434 L1729,366 L1726,361 L1726,345 L1724,340 Z" fill="#fe0190" />
  <path d="M1279,1142 L1274,1143 L1255,1184 L1254,1226 L1300,1226 L1300,1189 L1294,1174 L1289,1169 L1290,1166 Z M1266,1142 L1248,1134 L1245,1135 L1246,1137 L1238,1149 L1232,1167 L1229,1169 L1229,1173 L1211,1208 L1212,1212 L1209,1212 L1203,1226 L1227,1226 Z M1287,1141 L1302,1170 L1302,1174 L1306,1179 L1322,1218 L1326,1222 L1326,1226 L1350,1226 L1327,1175 L1322,1171 L1324,1170 L1321,1168 L1323,1166 L1321,1166 L1322,1163 L1316,1154 L1317,1152 L1313,1149 L1313,1145 L1306,1133 L1298,1139 Z M1272,1039 L1262,1041 L1248,1048 L1240,1056 L1231,1073 L1229,1092 L1237,1113 L1248,1125 L1262,1132 L1284,1134 L1304,1126 L1316,1114 L1322,1103 L1324,1092 L1323,1074 L1311,1053 L1305,1053 L1307,1051 L1305,1048 L1288,1040 Z M1258,789 L1254,789 L1254,1035 L1256,1036 L1262,1032 L1262,1023 L1268,1019 L1267,1012 L1265,1013 L1262,1009 L1262,982 L1265,978 L1268,979 L1267,970 L1262,968 L1261,954 L1262,940 L1268,937 L1268,928 L1262,926 L1261,911 L1262,897 L1268,895 L1268,888 L1264,888 L1262,885 L1262,858 L1268,854 L1268,848 L1262,845 L1261,832 L1262,816 L1268,813 L1268,809 L1262,803 L1262,791 L1258,791 Z M1299,788 L1296,791 L1292,791 L1292,802 L1289,806 L1286,806 L1285,810 L1286,814 L1289,814 L1292,818 L1292,842 L1289,847 L1286,847 L1286,854 L1293,859 L1291,863 L1292,884 L1289,889 L1285,889 L1285,895 L1293,900 L1291,901 L1291,906 L1293,907 L1291,910 L1291,926 L1285,931 L1285,935 L1289,936 L1292,941 L1292,966 L1289,971 L1285,972 L1286,977 L1292,983 L1292,1008 L1290,1012 L1286,1012 L1285,1019 L1290,1021 L1293,1034 L1300,1035 Z M1271,700 L1258,704 L1240,720 L1235,733 L1234,748 L1241,767 L1248,775 L1267,785 L1284,785 L1295,782 L1298,777 L1303,777 L1311,769 L1319,751 L1319,734 L1314,721 L1302,708 L1300,709 L1299,706 L1291,702 Z M1271,648 L1270,691 L1282,692 L1282,648 Z M1275,621 L1268,625 L1267,633 L1269,638 L1279,641 L1285,637 L1284,634 L1287,630 L1284,624 Z M1275,486 L1275,613 L1279,613 L1279,486 Z" fill="#9a2e2e" />
</svg>