<svg version="1.1" id="Layer_1" xmlns="http://www.w3.org/2000/svg" xmlns:xlink="http://www.w3.org/1999/xlink" x="0px" y="0px"
	 width="100%" viewBox="0 0 2128 4476" enable-background="new 0 0 2128 4476" xml:space="preserve">
<path fill="#FFFFFF" opacity="1.000000" stroke="none" 
	d="
M2.000000,1372.000000 
	C2.000000,914.666687 2.000000,458.333344 2.000000,2.000000 
	C711.333313,2.000000 1420.666626,2.000000 2130.000000,2.000000 
	C2130.000000,1494.000000 2130.000000,2986.000000 2130.000000,4478.000000 
	C1420.666626,4478.000000 711.333313,4478.000000 2.000000,4478.000000 
	C2.000000,3443.000000 2.000000,2408.000000 2.000000,1372.000000 
M389.047882,425.577393 
	C386.142365,434.843933 381.992157,443.980621 384.968018,455.010406 
	C384.795471,458.052704 384.622894,461.095032 383.599487,464.925232 
	C383.445221,466.020813 383.290955,467.116394 382.465424,469.963379 
	C382.547607,472.261658 382.833832,474.573669 382.680420,476.856110 
	C381.127747,499.953705 379.781708,523.070129 377.826843,546.134583 
	C375.503510,573.546326 372.787445,600.927490 369.963257,628.293213 
	C367.684601,650.373047 364.780029,672.388733 362.549713,694.472961 
	C360.684570,712.941040 359.393677,731.467224 357.593109,751.612427 
	C357.183777,753.217529 356.552551,754.801697 356.398651,756.430908 
	C354.338684,778.231628 352.209381,800.027222 350.367126,821.846802 
	C347.491425,855.906250 344.838226,889.984436 342.059662,924.052185 
	C339.416260,956.463074 336.727448,988.870300 334.068817,1021.279968 
	C331.383026,1054.020630 328.593781,1086.753418 326.066437,1119.506226 
	C323.921631,1147.301758 321.996277,1175.115112 320.169312,1202.933350 
	C319.646149,1210.899170 319.983093,1218.917847 319.613770,1226.897949 
	C318.600739,1248.785645 316.901276,1270.654663 316.438538,1292.551392 
	C315.840118,1320.868408 316.176819,1349.205200 315.849701,1379.461548 
	C315.804840,1380.793091 315.707611,1382.125244 315.722595,1383.456055 
	C316.378021,1441.693970 316.947937,1499.932983 317.743866,1558.168945 
	C318.212006,1592.423096 319.073425,1626.671753 319.699219,1660.923950 
	C320.404083,1699.505493 320.947021,1738.090088 321.747345,1776.669556 
	C322.209137,1798.931763 323.008240,1821.187500 323.714539,1843.444336 
	C324.336334,1863.038574 325.092773,1882.628662 325.694183,1902.223511 
	C326.418182,1925.812622 327.243011,1949.401123 327.665009,1972.996338 
	C328.480103,2018.572021 328.936279,2064.154053 329.757111,2109.729492 
	C330.152069,2131.659180 331.212280,2153.576904 331.657501,2175.506592 
	C332.224121,2203.415283 330.955536,2231.332520 333.461731,2259.244385 
	C334.491882,2270.716797 332.476379,2282.433838 332.344818,2294.045410 
	C331.990173,2325.349121 331.840973,2356.655518 331.742645,2387.961426 
	C331.705017,2399.940674 332.026947,2411.920654 331.462280,2425.416260 
	C330.795746,2432.656738 330.681305,2439.999023 329.371857,2447.121338 
	C321.643433,2489.157227 321.017273,2531.734619 320.437073,2574.203857 
	C319.818695,2619.465332 321.033295,2664.754883 321.641754,2710.029297 
	C322.151550,2747.964600 322.854370,2785.897949 323.637329,2823.828613 
	C324.138367,2848.099854 324.937531,2872.364990 325.608582,2896.632812 
	C326.270416,2920.567627 326.974243,2944.501465 327.595825,2968.437500 
	C328.303864,2995.704102 328.911072,3022.972900 329.618652,3050.239502 
	C330.239746,3074.175537 330.951843,3098.109131 331.600159,3122.044189 
	C332.284546,3147.312012 333.031433,3172.578369 333.587616,3197.848877 
	C334.341766,3232.114014 335.020020,3266.381592 335.586212,3300.650146 
	C336.334045,3345.915039 337.173859,3391.179932 337.546143,3436.448486 
	C337.938080,3484.105225 338.024139,3531.766357 337.861511,3579.424316 
	C337.758179,3609.701904 336.770477,3639.976318 336.562775,3670.254639 
	C336.480835,3682.195557 337.154602,3694.163574 337.992767,3706.083740 
	C339.296783,3724.629150 339.903259,3743.325684 342.837372,3761.632324 
	C348.090485,3794.408203 354.806946,3826.951172 361.009521,3859.572754 
	C364.239349,3876.559814 368.571899,3893.543457 365.790009,3910.947510 
	C358.446411,3956.890137 348.874115,4002.387451 337.552551,4047.522461 
	C333.027466,4065.562256 328.310760,4083.602295 325.007172,4101.881836 
	C323.028015,4112.833496 320.809357,4124.062500 323.511871,4135.493652 
	C327.402435,4151.950684 329.883545,4168.784180 334.525604,4185.010742 
	C342.402374,4212.544434 353.161591,4239.080078 365.555664,4264.919434 
	C368.683167,4271.439941 373.355652,4276.259277 380.276459,4279.033203 
	C390.768250,4283.239258 401.152466,4287.729004 411.472046,4292.345215 
	C458.688873,4313.466309 507.240479,4330.191895 558.426331,4338.945801 
	C582.846558,4343.121582 607.276001,4345.798340 631.711121,4341.228027 
	C653.560303,4337.141113 675.556091,4332.803711 696.659058,4326.005859 
	C727.644043,4316.023926 757.911316,4303.805664 788.444153,4292.431641 
	C802.467041,4287.208008 816.463074,4281.898438 830.341492,4276.305664 
	C840.025513,4272.403320 839.935852,4271.595703 838.233826,4261.437012 
	C836.482544,4250.983887 835.190186,4240.438965 834.114746,4229.891602 
	C831.702820,4206.235840 838.833191,4183.738770 843.417236,4161.041016 
	C849.443420,4131.201660 862.358704,4103.643555 874.069336,4075.746094 
	C883.235474,4053.909668 891.563965,4031.758545 893.423462,4007.950684 
	C895.752502,3978.130127 893.182800,3948.821289 881.663696,3920.761719 
	C874.890320,3904.262451 874.863892,3886.800293 876.502625,3869.589355 
	C878.617676,3847.374268 885.032043,3825.961426 891.417542,3804.608154 
	C899.130920,3778.814209 907.726746,3753.199463 913.732056,3727.000732 
	C921.971924,3691.053467 925.108643,3654.265625 927.594971,3617.472412 
	C929.429932,3590.318115 932.385559,3563.225098 933.626587,3536.049316 
	C935.052917,3504.816650 935.507996,3473.525391 935.722900,3442.255127 
	C936.050293,3394.616211 935.989380,3346.972412 935.752014,3299.332520 
	C935.559631,3260.720947 934.973694,3222.110352 934.358337,3183.502441 
	C933.859802,3152.232422 933.147400,3120.964844 932.356812,3089.700439 
	C931.877930,3070.760498 931.207947,3051.822754 930.376221,3032.894775 
	C929.165833,3005.350830 927.587158,2977.822998 926.440491,2950.276611 
	C925.541687,2928.684814 924.934082,2907.078613 924.432495,2885.473145 
	C924.038208,2868.489990 923.715637,2851.495850 923.860046,2834.510986 
	C924.397827,2771.245605 925.263916,2707.982910 925.757446,2644.717285 
	C926.014343,2611.793701 927.021118,2578.926025 929.733093,2546.099609 
	C931.537048,2524.263672 932.638123,2502.369629 934.096191,2480.504639 
	C934.448975,2475.213623 935.053894,2469.938965 935.395752,2464.647705 
	C936.272217,2451.081787 937.066040,2437.510254 938.749207,2422.540039 
	C939.076660,2420.597900 939.533569,2418.667236 939.711243,2416.711426 
	C941.303040,2399.192383 942.471863,2381.625488 944.492554,2364.156982 
	C947.351074,2339.444824 950.972168,2314.822021 953.993958,2290.127686 
	C956.330994,2271.029297 957.689514,2251.797607 960.476196,2232.770508 
	C965.333252,2199.607178 970.929565,2166.551270 976.264404,2133.458252 
	C981.492798,2101.025635 986.926697,2068.625488 991.999695,2036.168579 
	C996.355835,2008.298706 1000.474426,1980.389771 1004.434753,1952.460693 
	C1008.998474,1920.276123 1013.441711,1888.072388 1017.627563,1855.836792 
	C1022.070923,1821.618164 1025.955688,1787.326782 1030.438843,1753.113647 
	C1036.171997,1709.362305 1042.291626,1665.661621 1048.179932,1621.930542 
	C1050.746826,1602.866699 1053.144897,1583.780151 1055.633667,1564.705811 
	C1057.823608,1547.920410 1059.939453,1531.124756 1062.256226,1514.356812 
	C1065.752930,1489.049561 1069.357788,1463.756836 1072.988892,1438.468384 
	C1075.864624,1418.440063 1078.848877,1398.427246 1082.214478,1376.771362 
	C1084.096436,1365.316895 1085.924927,1353.853149 1087.870117,1342.409546 
	C1094.541504,1303.161499 1101.144409,1263.901489 1108.021606,1224.689453 
	C1109.928955,1213.814941 1112.696655,1203.091309 1115.069702,1192.298462 
	C1117.619995,1194.601562 1118.751953,1196.874634 1119.234863,1199.278076 
	C1124.270752,1224.332764 1129.504028,1249.353516 1134.089600,1274.491699 
	C1140.399292,1309.081543 1146.197266,1343.764893 1152.216431,1380.032349 
	C1154.992920,1400.746704 1157.730713,1421.466187 1160.554810,1442.174072 
	C1164.901978,1474.052124 1169.574951,1505.888306 1173.613281,1537.805176 
	C1177.528076,1568.745239 1180.728516,1599.775024 1184.401978,1630.746460 
	C1188.737549,1667.299438 1193.673462,1703.786499 1197.555664,1740.386353 
	C1201.438721,1776.994751 1204.526489,1813.691528 1207.616333,1850.378784 
	C1209.983521,1878.483887 1211.852051,1906.631470 1213.866455,1934.765625 
	C1215.856934,1962.564453 1218.574341,1990.345459 1219.405884,2018.181030 
	C1219.978760,2037.357544 1223.417358,2056.468994 1220.578247,2075.840820 
	C1219.501953,2083.185059 1221.640015,2090.995117 1222.271851,2098.596191 
	C1223.673340,2115.459229 1224.858276,2132.343018 1226.479492,2149.184814 
	C1228.926270,2174.605713 1231.774292,2199.987793 1234.250000,2225.406006 
	C1235.825806,2241.585693 1236.737915,2257.832520 1238.472412,2273.993164 
	C1242.188599,2308.617188 1246.294189,2343.199219 1250.139771,2377.809570 
	C1251.860229,2393.294678 1253.338379,2408.806396 1255.251831,2426.063965 
	C1256.846802,2443.572021 1258.399292,2461.083984 1260.046143,2478.587158 
	C1262.686279,2506.645264 1265.423950,2534.694336 1268.054077,2562.753174 
	C1270.127441,2584.871582 1272.189575,2606.991943 1274.088501,2629.125732 
	C1275.420288,2644.650391 1276.467041,2660.199707 1277.644043,2675.737549 
	C1278.996826,2693.596680 1280.567871,2711.442627 1281.648926,2729.318359 
	C1282.791382,2748.213867 1283.249268,2767.151123 1284.401855,2786.045898 
	C1285.976685,2811.861572 1288.038818,2837.647705 1289.654419,2863.461182 
	C1290.235962,2872.752686 1289.812012,2882.107422 1290.397339,2891.398438 
	C1292.002441,2916.879639 1294.232788,2942.324707 1295.580078,2967.817627 
	C1296.737427,2989.713379 1297.430786,3011.652588 1297.595337,3033.578125 
	C1297.885498,3072.217285 1297.616089,3110.860352 1296.350952,3150.120850 
	C1292.966919,3152.695068 1289.583008,3155.269287 1287.461792,3156.883057 
	C1286.046143,3172.980713 1284.737671,3187.859863 1283.505127,3201.876465 
	C1289.162476,3205.116699 1293.437012,3207.564941 1297.687256,3211.859863 
	C1297.228882,3221.781982 1296.739746,3231.702637 1296.318970,3241.626221 
	C1295.630981,3257.852295 1295.067017,3274.083496 1294.307495,3290.306152 
	C1293.036865,3317.442871 1291.664795,3344.575195 1290.313965,3371.708252 
	C1288.996216,3398.177979 1287.241821,3424.633789 1286.419556,3451.118652 
	C1285.338013,3485.950928 1284.955933,3520.805176 1284.356689,3555.651611 
	C1284.306274,3558.586914 1284.887085,3561.533447 1285.510498,3566.254395 
	C1286.251343,3578.182617 1286.749878,3590.131592 1287.780273,3602.034668 
	C1290.424805,3632.586426 1295.210693,3662.864258 1306.489624,3691.464355 
	C1319.394897,3724.188477 1319.643433,3757.739502 1315.028198,3791.562744 
	C1311.307739,3818.828857 1305.192383,3845.759521 1300.964844,3872.967529 
	C1297.126221,3897.671875 1295.384644,3922.469971 1303.637207,3946.883301 
	C1310.922974,3968.437012 1310.484497,3990.859375 1309.461060,4013.102295 
	C1308.746582,4028.629639 1305.855591,4044.044922 1304.346313,4059.550293 
	C1300.129272,4102.873047 1308.774536,4144.432617 1323.826782,4184.601562 
	C1334.426758,4212.888672 1347.348999,4240.308105 1359.305298,4268.084473 
	C1363.664307,4278.210938 1370.667358,4285.928711 1380.617188,4290.934570 
	C1412.149658,4306.799316 1444.475098,4320.744629 1478.321411,4330.912109 
	C1499.019775,4337.129395 1520.073730,4341.851074 1541.664062,4343.665527 
	C1577.198608,4346.652832 1612.145630,4342.150879 1646.272095,4332.854980 
	C1700.756714,4318.014160 1754.934448,4302.039062 1809.173218,4286.306152 
	C1828.157227,4280.800293 1828.114258,4280.491211 1832.292725,4260.620605 
	C1838.236084,4232.356934 1843.505493,4203.934570 1850.211182,4175.854492 
	C1854.386963,4158.368164 1859.221069,4140.914062 1859.420898,4123.013672 
	C1859.780884,4090.785400 1858.562378,4058.539551 1857.981079,4026.301514 
	C1857.873047,4020.312012 1858.115723,4014.271240 1857.417480,4008.345947 
	C1854.280151,3981.718506 1854.818604,3955.364502 1861.095825,3929.132568 
	C1871.218628,3886.831055 1881.287354,3844.540039 1886.913818,3801.279053 
	C1891.059204,3769.406738 1890.743896,3737.685791 1887.399658,3705.894043 
	C1884.590332,3679.189697 1881.094604,3652.557129 1878.367554,3625.845215 
	C1876.278198,3605.379395 1874.914062,3584.839111 1873.592529,3562.573486 
	C1873.084595,3552.636719 1872.557617,3542.700684 1872.072388,3532.762695 
	C1870.809937,3506.904785 1869.014893,3481.058105 1868.449951,3455.184814 
	C1867.693970,3420.564941 1867.568848,3385.922363 1867.787354,3351.293213 
	C1867.978271,3321.036865 1868.947632,3290.784424 1869.708984,3260.533447 
	C1870.252441,3238.942383 1871.121460,3217.358887 1871.605469,3195.766602 
	C1871.704224,3191.366211 1872.189453,3187.869629 1877.040771,3187.521729 
	C1875.442139,3179.974609 1873.275269,3172.932861 1872.635132,3165.754883 
	C1872.083130,3159.567627 1873.443237,3153.230713 1873.656982,3146.949951 
	C1874.425903,3124.365234 1875.056152,3101.775635 1875.765259,3079.188721 
	C1875.921753,3074.202881 1876.048340,3069.209961 1876.426025,3064.238037 
	C1878.133179,3041.761963 1880.132935,3019.306152 1881.619629,2996.816162 
	C1882.758545,2979.590088 1883.104736,2962.313232 1884.130371,2945.078369 
	C1885.864746,2915.938721 1887.839111,2886.813721 1889.750244,2857.684814 
	C1890.597778,2844.768799 1891.405151,2831.847656 1892.467529,2818.948486 
	C1894.099609,2799.131836 1896.197266,2779.350830 1897.606079,2759.519775 
	C1898.829224,2742.300781 1899.240479,2725.025391 1900.250122,2707.789062 
	C1901.238892,2690.907227 1902.776733,2674.055420 1903.623657,2657.167969 
	C1904.622070,2637.260742 1905.187988,2617.331299 1905.839478,2597.407959 
	C1906.144043,2588.096191 1906.098999,2578.772461 1906.406982,2569.460693 
	C1906.955811,2552.865723 1908.219482,2536.272949 1908.147827,2519.683594 
	C1908.051636,2497.427002 1907.122803,2475.167969 1906.240967,2452.922607 
	C1905.862427,2443.376465 1904.703125,2433.861816 1904.208740,2422.443604 
	C1903.376221,2396.190674 1901.766968,2369.935059 1901.854614,2343.685303 
	C1902.134766,2259.770264 1902.941528,2175.856445 1903.753296,2091.944092 
	C1904.181396,2047.683594 1904.938232,2003.425171 1905.749878,1959.169678 
	C1906.176514,1935.901245 1907.010742,1912.639893 1907.715698,1889.376953 
	C1908.339844,1868.777588 1909.177368,1848.183594 1909.674805,1827.581421 
	C1910.461670,1794.989380 1911.007324,1762.391846 1911.721924,1729.797974 
	C1912.334106,1701.867554 1913.063477,1673.939697 1913.698730,1646.009766 
	C1914.394775,1615.415161 1915.381104,1584.822266 1915.636841,1554.223633 
	C1916.093506,1499.584839 1916.105835,1444.942383 1916.270508,1390.301392 
	C1916.282593,1386.310181 1916.027222,1382.318237 1916.227661,1376.435303 
	C1916.200684,1356.116699 1916.630859,1335.784790 1916.037476,1315.482666 
	C1915.183960,1286.283325 1913.594360,1257.105347 1912.302246,1227.918945 
	C1911.523926,1210.336548 1910.852905,1192.747681 1909.881226,1175.175781 
	C1908.818848,1155.966309 1907.439575,1136.774414 1906.247070,1117.571899 
	C1905.341553,1102.993774 1904.705933,1088.396362 1903.609009,1073.833252 
	C1901.293457,1043.089844 1898.871826,1012.353455 1896.270020,981.633118 
	C1894.170898,956.849487 1891.797241,932.088562 1889.446533,907.326904 
	C1887.128662,882.912048 1884.643921,858.513123 1882.310547,834.099731 
	C1879.818359,808.025391 1877.417603,781.942200 1874.629517,754.047485 
	C1874.235352,746.422852 1874.179321,738.762573 1873.381958,731.180359 
	C1871.202515,710.455505 1868.253418,689.803223 1866.451782,669.049072 
	C1863.876099,639.378967 1862.049438,609.643921 1860.136230,578.320740 
	C1859.571533,574.686768 1859.006836,571.052734 1858.422974,566.641113 
	C1858.422974,566.641113 1858.100708,565.933167 1858.379150,564.985474 
	C1858.379150,564.985474 1858.026611,564.062439 1858.275879,562.548950 
	C1858.127075,561.034119 1857.978271,559.519348 1857.998535,556.384399 
	C1857.803101,554.233398 1857.607666,552.082397 1857.621582,548.322205 
	C1856.310303,540.244507 1854.999023,532.166809 1853.894043,522.357727 
	C1853.529053,519.514160 1853.164062,516.670593 1853.102051,512.526733 
	C1852.630127,510.379456 1852.158203,508.232178 1851.896118,504.318207 
	C1850.859375,494.856049 1849.822632,485.393921 1848.514526,474.286682 
	C1848.286743,471.526459 1848.058960,468.766235 1848.000122,464.459351 
	C1847.752441,462.940643 1847.504639,461.421906 1847.197144,458.536224 
	C1846.693115,456.384796 1846.189087,454.233398 1845.895752,450.336731 
	C1845.140991,443.448334 1844.516113,436.540619 1843.497803,429.691437 
	C1843.336426,428.606323 1841.401001,427.785034 1840.133545,424.948761 
	C1839.331543,416.746063 1838.516724,408.544586 1837.729858,400.340424 
	C1835.558350,377.695587 1833.398438,355.049591 1831.386108,330.731567 
	C1828.161133,302.411957 1824.825317,274.104340 1821.750854,245.768402 
	C1819.749390,227.322571 1817.747925,208.861313 1816.492676,190.356339 
	C1815.843628,180.788162 1811.324219,175.725723 1802.412598,173.777054 
	C1799.821655,173.210495 1797.257568,172.482697 1794.643311,172.066864 
	C1769.760254,168.108963 1744.889282,164.067780 1719.972778,160.331146 
	C1704.895386,158.070053 1689.766479,156.107010 1674.620117,154.362091 
	C1652.552124,151.819748 1630.455078,149.521393 1608.356567,147.253784 
	C1584.952148,144.852173 1561.542969,142.480957 1538.111328,140.368591 
	C1530.504272,139.682800 1522.805908,140.075226 1515.173340,139.594223 
	C1488.698120,137.925766 1462.247559,135.830658 1435.760376,134.402359 
	C1415.525757,133.311234 1395.254639,132.691132 1374.991699,132.373215 
	C1321.751953,131.537888 1268.508301,130.481720 1215.265503,130.438980 
	C1145.683716,130.383118 1076.101196,131.239273 1006.518677,131.659958 
	C963.552612,131.919724 920.585266,132.011139 877.620056,132.367310 
	C864.342651,132.477371 851.065674,133.099960 837.796875,133.680618 
	C808.940186,134.943344 780.083923,136.234238 751.236816,137.696503 
	C728.040039,138.872360 704.821960,139.884232 681.676819,141.755341 
	C654.586548,143.945374 627.510315,146.530350 600.526550,149.766190 
	C558.395325,154.818512 516.313232,160.318390 474.280457,166.135635 
	C457.874054,168.406235 441.666687,172.100037 425.349152,175.036987 
	C420.469788,175.915237 417.901886,178.134644 417.432251,183.506531 
	C415.990143,200.001144 414.093750,216.456802 412.305908,232.920212 
	C410.480835,249.725784 408.570923,266.522125 406.705872,283.323364 
	C404.511993,303.086517 402.326477,322.850616 399.838318,344.189392 
	C399.333160,347.111298 398.660522,350.015533 398.349823,352.957977 
	C396.199707,373.320160 394.124939,393.690308 390.592194,414.857758 
	C390.432007,418.200867 390.271851,421.543945 389.047882,425.577393 
z"/>
<path fill="#FF507D" opacity="1.000000" stroke="none" 
	d="
M937.892822,2423.941162 
	C937.066040,2437.510254 936.272217,2451.081787 935.395752,2464.647705 
	C935.053894,2469.938965 934.448975,2475.213623 934.096191,2480.504639 
	C932.638123,2502.369629 931.537048,2524.263672 929.733093,2546.099609 
	C927.021118,2578.926025 926.014343,2611.793701 925.757446,2644.717285 
	C925.263916,2707.982910 924.397827,2771.245605 923.860046,2834.510986 
	C923.715637,2851.495850 924.038208,2868.489990 924.432495,2885.473145 
	C924.934082,2907.078613 925.541687,2928.684814 926.440491,2950.276611 
	C927.587158,2977.822998 929.165833,3005.350830 930.376221,3032.894775 
	C931.207947,3051.822754 931.877930,3070.760498 932.356812,3089.700439 
	C933.147400,3120.964844 933.859802,3152.232422 934.358337,3183.502441 
	C934.973694,3222.110352 935.559631,3260.720947 935.752014,3299.332520 
	C935.989380,3346.972412 936.050293,3394.616211 935.722900,3442.255127 
	C935.507996,3473.525391 935.052917,3504.816650 933.626587,3536.049316 
	C932.385559,3563.225098 929.429932,3590.318115 927.594971,3617.472412 
	C925.108643,3654.265625 921.971924,3691.053467 913.732056,3727.000732 
	C907.726746,3753.199463 899.130920,3778.814209 891.417542,3804.608154 
	C885.032043,3825.961426 878.617676,3847.374268 876.502625,3869.589355 
	C874.863892,3886.800293 874.890320,3904.262451 881.663696,3920.761719 
	C893.182800,3948.821289 895.752502,3978.130127 893.423462,4007.950684 
	C891.563965,4031.758545 883.235474,4053.909668 874.069336,4075.746094 
	C862.358704,4103.643555 849.443420,4131.201660 843.417236,4161.041016 
	C838.833191,4183.738770 831.702820,4206.235840 834.114746,4229.891602 
	C835.190186,4240.438965 836.482544,4250.983887 838.233826,4261.437012 
	C839.935852,4271.595703 840.025513,4272.403320 830.341492,4276.305664 
	C816.463074,4281.898438 802.467041,4287.208008 788.444153,4292.431641 
	C757.911316,4303.805664 727.644043,4316.023926 696.659058,4326.005859 
	C675.556091,4332.803711 653.560303,4337.141113 631.711121,4341.228027 
	C607.276001,4345.798340 582.846558,4343.121582 558.426331,4338.945801 
	C507.240479,4330.191895 458.688873,4313.466309 411.472046,4292.345215 
	C401.152466,4287.729004 390.768250,4283.239258 380.276459,4279.033203 
	C373.355652,4276.259277 368.683167,4271.439941 365.555664,4264.919434 
	C353.161591,4239.080078 342.402374,4212.544434 334.525604,4185.010742 
	C329.883545,4168.784180 327.402435,4151.950684 323.511871,4135.493652 
	C320.809357,4124.062500 323.028015,4112.833496 325.007172,4101.881836 
	C328.310760,4083.602295 333.027466,4065.562256 337.552551,4047.522461 
	C348.874115,4002.387451 358.446411,3956.890137 365.790009,3910.947510 
	C368.571899,3893.543457 364.239349,3876.559814 361.009521,3859.572754 
	C354.806946,3826.951172 348.090485,3794.408203 342.837372,3761.632324 
	C339.903259,3743.325684 339.296783,3724.629150 337.992767,3706.083740 
	C337.154602,3694.163574 336.480835,3682.195557 336.562775,3670.254639 
	C336.770477,3639.976318 337.758179,3609.701904 337.861511,3579.424316 
	C338.024139,3531.766357 337.938080,3484.105225 337.546143,3436.448486 
	C337.173859,3391.179932 336.334045,3345.915039 335.586212,3300.650146 
	C335.020020,3266.381592 334.341766,3232.114014 333.587616,3197.848877 
	C333.031433,3172.578369 332.284546,3147.312012 331.600159,3122.044189 
	C330.951843,3098.109131 330.239746,3074.175537 329.618652,3050.239502 
	C328.911072,3022.972900 328.303864,2995.704102 327.595825,2968.437500 
	C326.974243,2944.501465 326.270416,2920.567627 325.608582,2896.632812 
	C324.937531,2872.364990 324.138367,2848.099854 323.637329,2823.828613 
	C322.854370,2785.897949 322.151550,2747.964600 321.641754,2710.029297 
	C321.033295,2664.754883 319.818695,2619.465332 320.437073,2574.203857 
	C321.017273,2531.734619 321.643433,2489.157227 329.371857,2447.121338 
	C330.681305,2439.999023 330.795746,2432.656738 332.746460,2424.660156 
	C535.318054,2423.916260 736.605408,2423.928711 937.892822,2423.941162 
z"/>
<path fill="#01D7F0" opacity="1.000000" stroke="none" 
	d="
M316.110870,1377.533447 
	C316.176819,1349.205200 315.840118,1320.868408 316.438538,1292.551392 
	C316.901276,1270.654663 318.600739,1248.785645 319.613770,1226.897949 
	C319.983093,1218.917847 319.646149,1210.899170 320.169312,1202.933350 
	C321.996277,1175.115112 323.921631,1147.301758 326.066437,1119.506226 
	C328.593781,1086.753418 331.383026,1054.020630 334.068817,1021.279968 
	C336.727448,988.870300 339.416260,956.463074 342.059662,924.052185 
	C344.838226,889.984436 347.491425,855.906250 350.367126,821.846802 
	C352.209381,800.027222 354.338684,778.231628 356.398651,756.430908 
	C356.552551,754.801697 357.183777,753.217529 358.669189,750.816711 
	C366.072479,750.023193 372.399750,750.006653 378.726929,750.030151 
	C652.448669,751.044556 926.170471,752.062500 1200.076416,754.065796 
	C1200.260742,785.859009 1200.260742,816.666382 1200.260742,847.781311 
	C1244.140381,847.781311 1286.828369,847.781311 1330.330444,847.781311 
	C1330.330444,843.672485 1330.314941,840.089355 1330.332886,836.506287 
	C1330.471313,808.929321 1330.616333,781.352417 1331.648926,753.780884 
	C1428.773560,754.120789 1525.008667,754.430542 1621.243652,754.797119 
	C1705.821533,755.119324 1790.399292,755.505127 1874.977051,755.862915 
	C1877.417603,781.942200 1879.818359,808.025391 1882.310547,834.099731 
	C1884.643921,858.513123 1887.128662,882.912048 1889.446533,907.326904 
	C1891.797241,932.088562 1894.170898,956.849487 1896.270020,981.633118 
	C1898.871826,1012.353455 1901.293457,1043.089844 1903.609009,1073.833252 
	C1904.705933,1088.396362 1905.341553,1102.993774 1906.247070,1117.571899 
	C1907.439575,1136.774414 1908.818848,1155.966309 1909.881226,1175.175781 
	C1910.852905,1192.747681 1911.523926,1210.336548 1912.302246,1227.918945 
	C1913.594360,1257.105347 1915.183960,1286.283325 1916.037476,1315.482666 
	C1916.630859,1335.784790 1916.200684,1356.116699 1915.133301,1377.377808 
	C1665.095947,1378.318848 1416.152954,1378.316772 1167.209839,1378.319458 
	C1162.211426,1378.319580 1157.212891,1378.377197 1152.214478,1378.407959 
	C1146.197266,1343.764893 1140.399292,1309.081543 1134.089600,1274.491699 
	C1129.504028,1249.353516 1124.270752,1224.332764 1119.234863,1199.278076 
	C1118.751953,1196.874634 1117.619995,1194.601562 1115.069702,1192.298462 
	C1112.696655,1203.091309 1109.928955,1213.814941 1108.021606,1224.689453 
	C1101.144409,1263.901489 1094.541504,1303.161499 1087.870117,1342.409546 
	C1085.924927,1353.853149 1084.096436,1365.316895 1081.080688,1377.558838 
	C829.973145,1378.337036 579.999329,1378.331787 330.025574,1378.285522 
	C325.387299,1378.284668 320.749115,1377.795044 316.110870,1377.533447 
z"/>
<path fill="#C0FF28" opacity="1.000000" stroke="none" 
	d="
M1152.215454,1379.220215 
	C1157.212891,1378.377197 1162.211426,1378.319580 1167.209839,1378.319458 
	C1416.152954,1378.316772 1665.095947,1378.318848 1914.967529,1378.323486 
	C1916.027222,1382.318237 1916.282593,1386.310181 1916.270508,1390.301392 
	C1916.105835,1444.942383 1916.093506,1499.584839 1915.636841,1554.223633 
	C1915.381104,1584.822266 1914.394775,1615.415161 1913.698730,1646.009766 
	C1913.063477,1673.939697 1912.334106,1701.867554 1911.721924,1729.797974 
	C1911.007324,1762.391846 1910.461670,1794.989380 1909.674805,1827.581421 
	C1909.177368,1848.183594 1908.339844,1868.777588 1907.715698,1889.376953 
	C1907.010742,1912.639893 1906.176514,1935.901245 1905.749878,1959.169678 
	C1904.938232,2003.425171 1904.181396,2047.683594 1903.753296,2091.944092 
	C1902.941528,2175.856445 1902.134766,2259.770264 1901.854614,2343.685303 
	C1901.766968,2369.935059 1903.376221,2396.190674 1903.124512,2423.384766 
	C1686.335571,2424.319580 1470.631104,2424.312744 1254.926514,2424.306152 
	C1253.338379,2408.806396 1251.860229,2393.294678 1250.139771,2377.809570 
	C1246.294189,2343.199219 1242.188599,2308.617188 1238.472412,2273.993164 
	C1236.737915,2257.832520 1235.825806,2241.585693 1234.250000,2225.406006 
	C1231.774292,2199.987793 1228.926270,2174.605713 1226.479492,2149.184814 
	C1224.858276,2132.343018 1223.673340,2115.459229 1222.271851,2098.596191 
	C1221.640015,2090.995117 1219.501953,2083.185059 1220.578247,2075.840820 
	C1223.417358,2056.468994 1219.978760,2037.357544 1219.405884,2018.181030 
	C1218.574341,1990.345459 1215.856934,1962.564453 1213.866455,1934.765625 
	C1211.852051,1906.631470 1209.983521,1878.483887 1207.616333,1850.378784 
	C1204.526489,1813.691528 1201.438721,1776.994751 1197.555664,1740.386353 
	C1193.673462,1703.786499 1188.737549,1667.299438 1184.401978,1630.746460 
	C1180.728516,1599.775024 1177.528076,1568.745239 1173.613281,1537.805176 
	C1169.574951,1505.888306 1164.901978,1474.052124 1160.554810,1442.174072 
	C1157.730713,1421.466187 1154.992920,1400.746704 1152.215454,1379.220215 
z"/>
<path fill="#C0FF28" opacity="1.000000" stroke="none" 
	d="
M315.980286,1378.497559 
	C320.749115,1377.795044 325.387299,1378.284668 330.025574,1378.285522 
	C579.999329,1378.331787 829.973145,1378.337036 1080.865967,1378.376953 
	C1078.848877,1398.427246 1075.864624,1418.440063 1072.988892,1438.468384 
	C1069.357788,1463.756836 1065.752930,1489.049561 1062.256226,1514.356812 
	C1059.939453,1531.124756 1057.823608,1547.920410 1055.633667,1564.705811 
	C1053.144897,1583.780151 1050.746826,1602.866699 1048.179932,1621.930542 
	C1042.291626,1665.661621 1036.171997,1709.362305 1030.438843,1753.113647 
	C1025.955688,1787.326782 1022.070923,1821.618164 1017.627563,1855.836792 
	C1013.441711,1888.072388 1008.998474,1920.276123 1004.434753,1952.460693 
	C1000.474426,1980.389771 996.355835,2008.298706 991.999695,2036.168579 
	C986.926697,2068.625488 981.492798,2101.025635 976.264404,2133.458252 
	C970.929565,2166.551270 965.333252,2199.607178 960.476196,2232.770508 
	C957.689514,2251.797607 956.330994,2271.029297 953.993958,2290.127686 
	C950.972168,2314.822021 947.351074,2339.444824 944.492554,2364.156982 
	C942.471863,2381.625488 941.303040,2399.192383 939.711243,2416.711426 
	C939.533569,2418.667236 939.076660,2420.597900 938.321045,2423.240723 
	C736.605408,2423.928711 535.318054,2423.916260 333.107849,2423.902100 
	C332.026947,2411.920654 331.705017,2399.940674 331.742645,2387.961426 
	C331.840973,2356.655518 331.990173,2325.349121 332.344818,2294.045410 
	C332.476379,2282.433838 334.491882,2270.716797 333.461731,2259.244385 
	C330.955536,2231.332520 332.224121,2203.415283 331.657501,2175.506592 
	C331.212280,2153.576904 330.152069,2131.659180 329.757111,2109.729492 
	C328.936279,2064.154053 328.480103,2018.572021 327.665009,1972.996338 
	C327.243011,1949.401123 326.418182,1925.812622 325.694183,1902.223511 
	C325.092773,1882.628662 324.336334,1863.038574 323.714539,1843.444336 
	C323.008240,1821.187500 322.209137,1798.931763 321.747345,1776.669556 
	C320.947021,1738.090088 320.404083,1699.505493 319.699219,1660.923950 
	C319.073425,1626.671753 318.212006,1592.423096 317.743866,1558.168945 
	C316.947937,1499.932983 316.378021,1441.693970 315.722595,1383.456055 
	C315.707611,1382.125244 315.804840,1380.793091 315.980286,1378.497559 
z"/>
<path fill="#FF00C6" opacity="1.000000" stroke="none" 
	d="
M1255.089111,2425.185059 
	C1470.631104,2424.312744 1686.335571,2424.319580 1902.969360,2424.329590 
	C1904.703125,2433.861816 1905.862427,2443.376465 1906.240967,2452.922607 
	C1907.122803,2475.167969 1908.051636,2497.427002 1908.147827,2519.683594 
	C1908.219482,2536.272949 1906.955811,2552.865723 1906.406982,2569.460693 
	C1906.098999,2578.772461 1906.144043,2588.096191 1905.839478,2597.407959 
	C1905.187988,2617.331299 1904.622070,2637.260742 1903.623657,2657.167969 
	C1902.776733,2674.055420 1901.238892,2690.907227 1900.250122,2707.789062 
	C1899.240479,2725.025391 1898.829224,2742.300781 1897.606079,2759.519775 
	C1896.197266,2779.350830 1894.099609,2799.131836 1892.467529,2818.948486 
	C1891.405151,2831.847656 1890.597778,2844.768799 1889.750244,2857.684814 
	C1887.839111,2886.813721 1885.864746,2915.938721 1884.130371,2945.078369 
	C1883.104736,2962.313232 1882.758545,2979.590088 1881.619629,2996.816162 
	C1880.132935,3019.306152 1878.133179,3041.761963 1876.426025,3064.238037 
	C1876.048340,3069.209961 1875.921753,3074.202881 1875.765259,3079.188721 
	C1875.056152,3101.775635 1874.425903,3124.365234 1873.656982,3146.949951 
	C1873.443237,3153.230713 1872.083130,3159.567627 1872.635132,3165.754883 
	C1873.275269,3172.932861 1875.442139,3179.974609 1877.040771,3187.521729 
	C1872.189453,3187.869629 1871.704224,3191.366211 1871.605469,3195.766602 
	C1871.121460,3217.358887 1870.252441,3238.942383 1869.708984,3260.533447 
	C1868.947632,3290.784424 1867.978271,3321.036865 1867.787354,3351.293213 
	C1867.568848,3385.922363 1867.693970,3420.564941 1868.449951,3455.184814 
	C1869.014893,3481.058105 1870.809937,3506.904785 1872.072388,3532.762695 
	C1872.557617,3542.700684 1873.084595,3552.636719 1872.528564,3563.447021 
	C1680.361328,3564.320557 1489.258179,3564.319336 1298.155029,3564.326660 
	C1293.828247,3564.326904 1289.501343,3564.423340 1285.174561,3564.474609 
	C1284.887085,3561.533447 1284.306274,3558.586914 1284.356689,3555.651611 
	C1284.955933,3520.805176 1285.338013,3485.950928 1286.419556,3451.118652 
	C1287.241821,3424.633789 1288.996216,3398.177979 1290.313965,3371.708252 
	C1291.664795,3344.575195 1293.036865,3317.442871 1294.307495,3290.306152 
	C1295.067017,3274.083496 1295.630981,3257.852295 1296.318970,3241.626221 
	C1296.739746,3231.702637 1297.228882,3221.781982 1297.779419,3210.012695 
	C1297.774658,3188.611084 1297.677734,3169.056641 1297.580811,3149.501953 
	C1297.616089,3110.860352 1297.885498,3072.217285 1297.595337,3033.578125 
	C1297.430786,3011.652588 1296.737427,2989.713379 1295.580078,2967.817627 
	C1294.232788,2942.324707 1292.002441,2916.879639 1290.397339,2891.398438 
	C1289.812012,2882.107422 1290.235962,2872.752686 1289.654419,2863.461182 
	C1288.038818,2837.647705 1285.976685,2811.861572 1284.401855,2786.045898 
	C1283.249268,2767.151123 1282.791382,2748.213867 1281.648926,2729.318359 
	C1280.567871,2711.442627 1278.996826,2693.596680 1277.644043,2675.737549 
	C1276.467041,2660.199707 1275.420288,2644.650391 1274.088501,2629.125732 
	C1272.189575,2606.991943 1270.127441,2584.871582 1268.054077,2562.753174 
	C1265.423950,2534.694336 1262.686279,2506.645264 1260.046143,2478.587158 
	C1258.399292,2461.083984 1256.846802,2443.572021 1255.089111,2425.185059 
z"/>
<path fill="#FF0142" opacity="1.000000" stroke="none" 
	d="
M1199.892090,753.080017 
	C926.170471,752.062500 652.448669,751.044556 378.726929,750.030151 
	C372.399750,750.006653 366.072479,750.023193 358.796875,749.994324 
	C359.393677,731.467224 360.684570,712.941040 362.549713,694.472961 
	C364.780029,672.388733 367.684601,650.373047 369.963257,628.293213 
	C372.787445,600.927490 375.503510,573.546326 377.826843,546.134583 
	C379.781708,523.070129 381.127747,499.953705 382.680420,476.856110 
	C382.833832,474.573669 382.547607,472.261658 383.269318,468.958160 
	C384.198914,466.681061 384.324646,465.409210 384.450378,464.137329 
	C384.622894,461.095032 384.795471,458.052704 386.255829,454.525421 
	C390.559631,453.838135 393.575653,453.635834 397.526001,453.070496 
	C401.121368,452.627808 403.782349,452.548248 406.889526,452.899872 
	C410.057648,452.972168 412.779572,452.613251 416.412994,452.029175 
	C431.279144,450.970093 445.225677,449.948120 459.190186,449.340027 
	C491.788513,447.920441 524.385437,446.105469 557.001587,445.552124 
	C595.971375,444.891022 634.960815,445.434021 673.941345,445.318604 
	C681.249695,445.296967 688.601868,443.930817 695.854370,444.403931 
	C713.116577,445.529968 730.356506,447.149078 747.559509,448.996613 
	C780.323669,452.515442 813.106323,455.939911 845.786560,460.140564 
	C876.466553,464.084137 907.079163,468.638550 937.617493,473.568085 
	C960.273315,477.225220 982.676941,482.459808 1005.345947,486.016510 
	C1041.141235,491.632721 1077.449463,494.144135 1112.399658,504.744934 
	C1116.610962,506.022278 1121.699585,505.869202 1126.072021,504.933441 
	C1189.154541,491.433105 1251.686157,475.208588 1315.802368,466.857819 
	C1344.811890,463.079468 1373.794067,459.056793 1402.853638,455.707031 
	C1427.625122,452.851562 1452.461304,450.439423 1477.320801,448.497498 
	C1501.518188,446.607269 1525.626465,443.738892 1550.017700,443.988708 
	C1590.657959,444.404938 1631.314941,444.187897 1671.953003,443.521667 
	C1703.633789,443.002289 1735.138916,443.884247 1766.684082,447.393677 
	C1791.052612,450.104706 1815.435425,454.654022 1840.284424,452.680542 
	C1840.953857,456.404114 1841.771729,459.284729 1842.055786,462.217072 
	C1843.551758,477.655182 1844.553833,493.149689 1846.411133,508.542175 
	C1848.804565,528.378540 1851.845459,548.136780 1854.650757,568.237915 
	C1856.019775,567.323364 1857.060181,566.628296 1858.100708,565.933167 
	C1858.100708,565.933167 1858.422974,566.641113 1858.241577,567.791870 
	C1857.594482,572.788330 1852.625000,577.388733 1859.902710,579.936584 
	C1862.049438,609.643921 1863.876099,639.378967 1866.451782,669.049072 
	C1868.253418,689.803223 1871.202515,710.455505 1873.381958,731.180359 
	C1874.179321,738.762573 1874.235352,746.422852 1874.803223,754.955200 
	C1790.399292,755.505127 1705.821533,755.119324 1621.243652,754.797119 
	C1525.008667,754.430542 1428.773560,754.120789 1331.501953,752.872314 
	C1330.465576,718.133484 1330.465576,684.308777 1330.465576,650.681396 
	C1313.634155,648.599426 1207.834473,649.309631 1200.304321,651.543457 
	C1200.304321,655.308289 1200.319458,659.262085 1200.301880,663.215820 
	C1200.168945,693.170532 1200.029541,723.125305 1199.892090,753.080017 
z"/>
<path fill="#FFD800" opacity="1.000000" stroke="none" 
	d="
M1285.342529,3565.364502 
	C1289.501343,3564.423340 1293.828247,3564.326904 1298.155029,3564.326660 
	C1489.258179,3564.319336 1680.361328,3564.320557 1872.345947,3564.326172 
	C1874.914062,3584.839111 1876.278198,3605.379395 1878.367554,3625.845215 
	C1881.094604,3652.557129 1884.590332,3679.189697 1887.399658,3705.894043 
	C1890.743896,3737.685791 1891.059204,3769.406738 1886.913818,3801.279053 
	C1881.287354,3844.540039 1871.218628,3886.831055 1861.095825,3929.132568 
	C1854.818604,3955.364502 1854.280151,3981.718506 1857.417480,4008.345947 
	C1858.115723,4014.271240 1857.873047,4020.312012 1857.981079,4026.301514 
	C1858.562378,4058.539551 1859.780884,4090.785400 1859.420898,4123.013672 
	C1859.221069,4140.914062 1854.386963,4158.368164 1850.211182,4175.854492 
	C1843.505493,4203.934570 1838.236084,4232.356934 1832.292725,4260.620605 
	C1828.114258,4280.491211 1828.157227,4280.800293 1809.173218,4286.306152 
	C1754.934448,4302.039062 1700.756714,4318.014160 1646.272095,4332.854980 
	C1612.145630,4342.150879 1577.198608,4346.652832 1541.664062,4343.665527 
	C1520.073730,4341.851074 1499.019775,4337.129395 1478.321411,4330.912109 
	C1444.475098,4320.744629 1412.149658,4306.799316 1380.617188,4290.934570 
	C1370.667358,4285.928711 1363.664307,4278.210938 1359.305298,4268.084473 
	C1347.348999,4240.308105 1334.426758,4212.888672 1323.826782,4184.601562 
	C1308.774536,4144.432617 1300.129272,4102.873047 1304.346313,4059.550293 
	C1305.855591,4044.044922 1308.746582,4028.629639 1309.461060,4013.102295 
	C1310.484497,3990.859375 1310.922974,3968.437012 1303.637207,3946.883301 
	C1295.384644,3922.469971 1297.126221,3897.671875 1300.964844,3872.967529 
	C1305.192383,3845.759521 1311.307739,3818.828857 1315.028198,3791.562744 
	C1319.643433,3757.739502 1319.394897,3724.188477 1306.489624,3691.464355 
	C1295.210693,3662.864258 1290.424805,3632.586426 1287.780273,3602.034668 
	C1286.749878,3590.131592 1286.251343,3578.182617 1285.342529,3565.364502 
z"/>
<path fill="#72FE01" opacity="1.000000" stroke="none" 
	d="
M406.443359,452.468658 
	C403.782349,452.548248 401.121368,452.627808 396.810181,452.764587 
	C390.880341,452.933105 388.288696,451.754578 388.979767,446.564331 
	C389.885345,439.763062 390.217621,432.885406 391.220886,425.268188 
	C391.772186,421.016449 391.899109,417.537170 392.026001,414.057892 
	C394.124939,393.690308 396.199707,373.320160 398.349823,352.957977 
	C398.660522,350.015533 399.333160,347.111298 400.827393,343.308105 
	C419.840790,339.254364 437.914764,336.334808 455.871002,332.814941 
	C466.718475,330.688538 477.283844,327.063049 488.159180,325.156219 
	C498.296326,323.378906 508.677124,322.996185 518.948547,321.978699 
	C549.762573,318.926270 580.574158,315.849457 611.389404,312.809052 
	C640.880432,309.899261 670.316467,305.820923 699.880066,304.385315 
	C759.429932,301.493500 819.039185,299.609222 878.644165,298.123199 
	C945.585815,296.454224 1012.548279,294.861572 1079.504639,294.726868 
	C1167.124023,294.550568 1254.747192,295.743774 1342.366821,296.545227 
	C1370.002075,296.797974 1397.631592,297.684875 1425.815186,298.336975 
	C1462.219116,300.979828 1498.078857,303.470215 1533.921753,306.185120 
	C1563.114502,308.396271 1592.280151,310.965576 1621.470581,313.207977 
	C1643.682617,314.914276 1665.914795,316.356659 1688.911987,318.168884 
	C1695.607178,319.149750 1701.515503,320.013214 1707.451904,320.584961 
	C1748.709351,324.558594 1789.972656,328.471588 1831.233887,332.404053 
	C1833.398438,355.049591 1835.558350,377.695587 1837.729858,400.340424 
	C1838.516724,408.544586 1839.331543,416.746063 1840.495850,426.570068 
	C1841.296875,434.361664 1841.901001,440.527588 1842.066772,446.705200 
	C1842.112427,448.405914 1840.849121,450.141724 1840.186523,451.861420 
	C1815.435425,454.654022 1791.052612,450.104706 1766.684082,447.393677 
	C1735.138916,443.884247 1703.633789,443.002289 1671.953003,443.521667 
	C1631.314941,444.187897 1590.657959,444.404938 1550.017700,443.988708 
	C1525.626465,443.738892 1501.518188,446.607269 1477.320801,448.497498 
	C1452.461304,450.439423 1427.625122,452.851562 1402.853638,455.707031 
	C1373.794067,459.056793 1344.811890,463.079468 1315.802368,466.857819 
	C1251.686157,475.208588 1189.154541,491.433105 1126.072021,504.933441 
	C1121.699585,505.869202 1116.610962,506.022278 1112.399658,504.744934 
	C1077.449463,494.144135 1041.141235,491.632721 1005.345947,486.016510 
	C982.676941,482.459808 960.273315,477.225220 937.617493,473.568085 
	C907.079163,468.638550 876.466553,464.084137 845.786560,460.140564 
	C813.106323,455.939911 780.323669,452.515442 747.559509,448.996613 
	C730.356506,447.149078 713.116577,445.529968 695.854370,444.403931 
	C688.601868,443.930817 681.249695,445.296967 673.941345,445.318604 
	C634.960815,445.434021 595.971375,444.891022 557.001587,445.552124 
	C524.385437,446.105469 491.788513,447.920441 459.190186,449.340027 
	C445.225677,449.948120 431.279144,450.970093 415.677429,451.865356 
	C411.501404,452.107330 408.972382,452.287994 406.443359,452.468658 
z"/>
<path fill="#0167FE" opacity="1.000000" stroke="none" 
	d="
M1425.263672,298.281555 
	C1397.631592,297.684875 1370.002075,296.797974 1342.366821,296.545227 
	C1254.747192,295.743774 1167.124023,294.550568 1079.504639,294.726868 
	C1012.548279,294.861572 945.585815,296.454224 878.644165,298.123199 
	C819.039185,299.609222 759.429932,301.493500 699.880066,304.385315 
	C670.316467,305.820923 640.880432,309.899261 611.389404,312.809052 
	C580.574158,315.849457 549.762573,318.926270 518.948547,321.978699 
	C508.677124,322.996185 498.296326,323.378906 488.159180,325.156219 
	C477.283844,327.063049 466.718475,330.688538 455.871002,332.814941 
	C437.914764,336.334808 419.840790,339.254364 400.976868,342.520569 
	C402.326477,322.850616 404.511993,303.086517 406.705872,283.323364 
	C408.570923,266.522125 410.480835,249.725784 412.305908,232.920212 
	C414.093750,216.456802 415.990143,200.001144 417.432251,183.506531 
	C417.901886,178.134644 420.469788,175.915237 425.349152,175.036987 
	C441.666687,172.100037 457.874054,168.406235 474.280457,166.135635 
	C516.313232,160.318390 558.395325,154.818512 600.526550,149.766190 
	C627.510315,146.530350 654.586548,143.945374 681.676819,141.755341 
	C704.821960,139.884232 728.040039,138.872360 751.236816,137.696503 
	C780.083923,136.234238 808.940186,134.943344 837.796875,133.680618 
	C851.065674,133.099960 864.342651,132.477371 877.620056,132.367310 
	C920.585266,132.011139 963.552612,131.919724 1006.518677,131.659958 
	C1076.101196,131.239273 1145.683716,130.383118 1215.265503,130.438980 
	C1268.508301,130.481720 1321.751953,131.537888 1374.991699,132.373215 
	C1395.254639,132.691132 1415.525757,133.311234 1435.760376,134.402359 
	C1462.247559,135.830658 1488.698120,137.925766 1515.173340,139.594223 
	C1522.805908,140.075226 1530.504272,139.682800 1538.111328,140.368591 
	C1561.542969,142.480957 1584.952148,144.852173 1608.356567,147.253784 
	C1630.455078,149.521393 1652.552124,151.819748 1674.620117,154.362091 
	C1689.766479,156.107010 1704.895386,158.070053 1719.972778,160.331146 
	C1744.889282,164.067780 1769.760254,168.108963 1794.643311,172.066864 
	C1797.257568,172.482697 1799.821655,173.210495 1802.412598,173.777054 
	C1811.324219,175.725723 1815.843628,180.788162 1816.492676,190.356339 
	C1817.747925,208.861313 1819.749390,227.322571 1821.750854,245.768402 
	C1824.825317,274.104340 1828.161133,302.411957 1831.310059,331.567810 
	C1789.972656,328.471588 1748.709351,324.558594 1707.451904,320.584961 
	C1701.515503,320.013214 1695.607178,319.149750 1688.918335,317.270752 
	C1684.096313,270.763153 1680.041992,225.406082 1675.997925,180.165054 
	C1587.286011,166.393372 1499.020874,163.624146 1410.173096,163.715591 
	C1410.327637,167.234634 1410.315063,169.539215 1410.546021,171.819122 
	C1414.502319,210.886261 1418.446533,249.954803 1422.547607,289.006836 
	C1422.878540,292.158752 1424.331787,295.192780 1425.263672,298.281555 
z"/>
<path fill="#CA169E" opacity="1.000000" stroke="none" 
	d="
M1296.965820,3149.811523 
	C1297.677734,3169.056641 1297.774658,3188.611084 1297.791626,3209.089355 
	C1293.437012,3207.564941 1289.162476,3205.116699 1283.505127,3201.876465 
	C1284.737671,3187.859863 1286.046143,3172.980713 1287.461792,3156.883057 
	C1289.583008,3155.269287 1292.966919,3152.695068 1296.965820,3149.811523 
z"/>
<path fill="#EB435B" opacity="1.000000" stroke="none" 
	d="
M1840.284424,452.680542 
	C1840.849121,450.141724 1842.112427,448.405914 1842.066772,446.705200 
	C1841.901001,440.527588 1841.296875,434.361664 1840.571899,427.516541 
	C1841.401001,427.785034 1843.336426,428.606323 1843.497803,429.691437 
	C1844.516113,436.540619 1845.140991,443.448334 1845.312744,451.652344 
	C1843.621704,455.990417 1842.761230,458.922638 1847.256958,459.903198 
	C1847.504639,461.421906 1847.752441,462.940643 1847.333984,465.705322 
	C1845.752441,470.327209 1844.484863,473.786102 1848.785889,475.931763 
	C1849.822632,485.393921 1850.859375,494.856049 1851.319946,505.619690 
	C1849.796021,509.709045 1848.586182,512.574890 1852.798950,513.827026 
	C1853.164062,516.670593 1853.529053,519.514160 1853.254517,523.809753 
	C1852.399902,528.885986 1851.064575,532.931885 1852.233032,536.035095 
	C1853.969482,540.646606 1851.204224,547.065674 1857.412109,549.931396 
	C1857.607666,552.082397 1857.803101,554.233398 1857.396484,557.565674 
	C1857.205200,560.518799 1857.615845,562.290588 1858.026611,564.062439 
	C1858.026611,564.062439 1858.379150,564.985474 1858.239990,565.459351 
	C1857.060181,566.628296 1856.019775,567.323364 1854.650757,568.237915 
	C1851.845459,548.136780 1848.804565,528.378540 1846.411133,508.542175 
	C1844.553833,493.149689 1843.551758,477.655182 1842.055786,462.217072 
	C1841.771729,459.284729 1840.953857,456.404114 1840.284424,452.680542 
z"/>
<path fill="#EF4D61" opacity="1.000000" stroke="none" 
	d="
M390.796478,426.040619 
	C390.217621,432.885406 389.885345,439.763062 388.979767,446.564331 
	C388.288696,451.754578 390.880341,452.933105 395.875824,453.127686 
	C393.575653,453.635834 390.559631,453.838135 386.814453,454.008850 
	C381.992157,443.980621 386.142365,434.843933 389.572571,425.470093 
	C390.097229,425.362793 390.796478,426.040619 390.796478,426.040619 
z"/>
<path fill="#FF0142" opacity="1.000000" stroke="none" 
	d="
M1857.516846,549.126831 
	C1851.204224,547.065674 1853.969482,540.646606 1852.233032,536.035095 
	C1851.064575,532.931885 1852.399902,528.885986 1853.151367,524.675415 
	C1854.999023,532.166809 1856.310303,540.244507 1857.516846,549.126831 
z"/>
<path fill="#EB435B" opacity="1.000000" stroke="none" 
	d="
M1860.019531,579.128662 
	C1852.625000,577.388733 1857.594482,572.788330 1858.251221,568.180725 
	C1859.006836,571.052734 1859.571533,574.686768 1860.019531,579.128662 
z"/>
<path fill="#FF0142" opacity="1.000000" stroke="none" 
	d="
M1847.227051,459.219727 
	C1842.761230,458.922638 1843.621704,455.990417 1845.207520,452.524963 
	C1846.189087,454.233398 1846.693115,456.384796 1847.227051,459.219727 
z"/>
<path fill="#FF0142" opacity="1.000000" stroke="none" 
	d="
M1852.950439,513.176880 
	C1848.586182,512.574890 1849.796021,509.709045 1851.214966,506.503021 
	C1852.158203,508.232178 1852.630127,510.379456 1852.950439,513.176880 
z"/>
<path fill="#E97B75" opacity="1.000000" stroke="none" 
	d="
M391.220886,425.268188 
	C390.796478,426.040619 390.097229,425.362793 390.104431,425.124939 
	C390.271851,421.543945 390.432007,418.200867 391.309113,414.457825 
	C391.899109,417.537170 391.772186,421.016449 391.220886,425.268188 
z"/>
<path fill="#FF0142" opacity="1.000000" stroke="none" 
	d="
M1848.650146,475.109222 
	C1844.484863,473.786102 1845.752441,470.327209 1847.249512,466.478638 
	C1848.058960,468.766235 1848.286743,471.526459 1848.650146,475.109222 
z"/>
<path fill="#EF4D61" opacity="1.000000" stroke="none" 
	d="
M384.024933,464.531281 
	C384.324646,465.409210 384.198914,466.681061 383.604950,468.082458 
	C383.290955,467.116394 383.445221,466.020813 384.024933,464.531281 
z"/>
<path fill="#FF0142" opacity="1.000000" stroke="none" 
	d="
M1858.151245,563.305664 
	C1857.615845,562.290588 1857.205200,560.518799 1857.312012,558.375732 
	C1857.978271,559.519348 1858.127075,561.034119 1858.151245,563.305664 
z"/>
<path fill="#FFF72D" opacity="1.000000" stroke="none" 
	d="
M1200.076416,754.065796 
	C1200.029541,723.125305 1200.168945,693.170532 1200.301880,663.215820 
	C1200.319458,659.262085 1200.304321,655.308289 1200.304321,651.543457 
	C1207.834473,649.309631 1313.634155,648.599426 1330.465576,650.681396 
	C1330.465576,684.308777 1330.465576,718.133484 1330.612549,752.866821 
	C1330.616333,781.352417 1330.471313,808.929321 1330.332886,836.506287 
	C1330.314941,840.089355 1330.330444,843.672485 1330.330444,847.781311 
	C1286.828369,847.781311 1244.140381,847.781311 1200.260742,847.781311 
	C1200.260742,816.666382 1200.260742,785.859009 1200.076416,754.065796 
z"/>
<path fill="#EF4D61" opacity="1.000000" stroke="none" 
	d="
M406.889526,452.899872 
	C408.972382,452.287994 411.501404,452.107330 414.765991,452.090515 
	C412.779572,452.613251 410.057648,452.972168 406.889526,452.899872 
z"/>
<path fill="#FD01CC" opacity="1.000000" stroke="none" 
	d="
M1425.815186,298.336975 
	C1424.331787,295.192780 1422.878540,292.158752 1422.547607,289.006836 
	C1418.446533,249.954803 1414.502319,210.886261 1410.546021,171.819122 
	C1410.315063,169.539215 1410.327637,167.234634 1410.173096,163.715591 
	C1499.020874,163.624146 1587.286011,166.393372 1675.997925,180.165054 
	C1680.041992,225.406082 1684.096313,270.763153 1688.144409,317.018372 
	C1665.914795,316.356659 1643.682617,314.914276 1621.470581,313.207977 
	C1592.280151,310.965576 1563.114502,308.396271 1533.921753,306.185120 
	C1498.078857,303.470215 1462.219116,300.979828 1425.815186,298.336975 
z"/>
</svg>