<svg xmlns="http://www.w3.org/2000/svg" viewBox="0 0 2048 2048" width="2048" height="2048">
<path d="M 943,36 L 927,62 L 920,91 L 921,135 L 911,138 L 908,143 L 908,155 L 913,168 L 928,186 L 1119,186 L 1132,171 L 1139,156 L 1139,144 L 1136,139 L 1126,134 L 1127,91 L 1122,69 L 1109,42 L 1089,22 L 1064,8 L 1037,1 L 1043,0 L 1003,0 L 1008,2 L 993,4 L 975,12 L 957,23 Z" fill="rgb(0,139,131)"/>
<path d="M 747,639 L 728,726 L 716,757 L 705,777 L 696,807 L 689,853 L 684,921 L 676,961 L 664,986 L 634,1025 L 610,1061 L 598,1085 L 593,1102 L 597,1110 L 604,1111 L 620,1096 L 635,1073 L 638,1072 L 634,1093 L 615,1153 L 612,1173 L 615,1178 L 619,1178 L 628,1171 L 639,1151 L 651,1121 L 652,1130 L 648,1150 L 648,1192 L 650,1199 L 654,1203 L 659,1202 L 665,1189 L 671,1154 L 671,1127 L 678,1123 L 680,1126 L 681,1174 L 684,1193 L 688,1202 L 697,1194 L 702,1167 L 701,1125 L 716,1171 L 720,1177 L 726,1174 L 727,1098 L 731,1073 L 730,1005 L 746,964 L 770,922 L 798,862 L 812,821 L 821,782 L 823,730 L 827,703 L 835,676 Z" fill="rgb(44,29,35)"/>
<path d="M 1210,664 L 1208,666 L 1215,684 L 1222,718 L 1225,778 L 1234,821 L 1249,863 L 1277,923 L 1301,965 L 1317,1008 L 1316,1079 L 1320,1108 L 1322,1178 L 1328,1177 L 1333,1168 L 1346,1124 L 1344,1149 L 1346,1181 L 1352,1198 L 1355,1202 L 1358,1202 L 1363,1194 L 1366,1179 L 1367,1126 L 1374,1124 L 1376,1131 L 1376,1158 L 1381,1186 L 1386,1199 L 1392,1206 L 1397,1201 L 1399,1194 L 1399,1155 L 1396,1120 L 1418,1170 L 1428,1178 L 1433,1177 L 1435,1173 L 1429,1142 L 1415,1100 L 1409,1072 L 1413,1074 L 1426,1097 L 1442,1111 L 1448,1111 L 1452,1108 L 1453,1097 L 1437,1061 L 1388,992 L 1371,962 L 1359,889 L 1357,843 L 1350,802 L 1343,779 L 1325,743 L 1319,726 L 1307,679 L 1303,648 Z" fill="rgb(78,100,14)"/>
<path d="M 748,587 L 748,628 L 746,638 L 835,675 L 841,659 L 847,653 L 854,766 L 1193,770 L 1199,654 L 1201,652 L 1207,664 L 1303,647 L 1299,624 L 1299,587 Z" fill="rgb(80,106,92)"/>
<path d="M 814,1026 L 809,1071 L 812,1124 L 836,1306 L 853,1392 L 989,1392 L 1007,1254 L 1012,1171 L 1036,1172 L 1037,1226 L 1048,1325 L 1058,1392 L 1194,1392 L 1211,1306 L 1235,1121 L 1238,1070 L 1233,1026 Z" fill="rgb(83,0,86)"/>
<path d="M 928,187 L 930,198 L 937,213 L 948,225 L 949,249 L 948,283 L 939,302 L 930,312 L 1120,313 L 1105,297 L 1098,277 L 1099,226 L 1110,213 L 1117,198 L 1119,187 Z" fill="rgb(113,254,0)"/>
<path d="M 756,420 L 749,452 L 748,586 L 1299,586 L 1298,452 L 1290,417 L 1280,392 L 1267,374 L 1243,353 L 1221,344 L 1158,332 L 1142,326 L 1121,314 L 929,313 L 900,328 L 859,339 L 823,345 L 800,356 L 775,380 L 764,399 Z" fill="rgb(139,0,56)"/>
<path d="M 855,767 L 856,866 L 852,889 L 826,967 L 814,1025 L 1233,1025 L 1218,956 L 1194,883 L 1191,859 L 1191,787 L 1193,771 Z" fill="rgb(143,183,243)"/>
<path d="M 1058,1393 L 1067,1461 L 1085,1556 L 1084,1600 L 1076,1663 L 1076,1693 L 1084,1767 L 1084,1829 L 1078,1860 L 1145,1860 L 1186,1729 L 1201,1658 L 1203,1637 L 1202,1603 L 1197,1578 L 1183,1532 L 1183,1515 L 1187,1493 L 1190,1419 L 1194,1393 Z" fill="rgb(149,139,149)"/>
<path d="M 853,1393 L 860,1448 L 860,1497 L 864,1518 L 864,1531 L 847,1594 L 844,1615 L 844,1637 L 848,1670 L 860,1724 L 902,1859 L 970,1860 L 963,1832 L 963,1767 L 971,1691 L 971,1658 L 963,1599 L 962,1557 L 979,1466 L 989,1393 Z" fill="rgb(149,139,149)"/>
<path d="M 903,1861 L 908,1889 L 908,1947 L 888,1998 L 884,2015 L 886,2027 L 895,2034 L 905,2034 L 909,2038 L 929,2039 L 943,2043 L 984,2043 L 985,2047 L 997,2047 L 998,2043 L 1006,2040 L 1006,2015 L 988,1961 L 983,1922 L 970,1861 Z" fill="rgb(242,0,0)"/>
<path d="M 1077,1860 L 1070,1890 L 1059,1959 L 1041,2017 L 1040,2039 L 1042,2042 L 1049,2043 L 1050,2047 L 1064,2047 L 1066,2043 L 1077,2043 L 1079,2045 L 1085,2042 L 1109,2043 L 1115,2039 L 1137,2038 L 1143,2033 L 1151,2034 L 1162,2027 L 1163,2014 L 1139,1942 L 1139,1890 L 1145,1861 Z" fill="rgb(242,0,0)"/>
</svg>